<svg xmlns="http://www.w3.org/2000/svg" viewBox="0 0 70.8 72.76"><defs><style>.cls-1,.cls-3{fill:#191919;}.cls-1{stroke:#191919;stroke-width:0.8px;}.cls-1,.cls-2,.cls-3,.cls-6{stroke-miterlimit:10;}.cls-2{fill:none;}.cls-2,.cls-3,.cls-6{stroke:#fff;stroke-width:0.36px;}.cls-4,.cls-6{fill:#fff;}.cls-5{fill:aqua;}</style></defs><title>KirinLogo</title><g id="Capa_6" data-name="Capa 6"><circle class="cls-1" cx="35.4" cy="35.4" r="35"/></g><g id="Capa_4" data-name="Capa 4"><polygon class="cls-2" points="36.12 72.57 40.45 71.13 48.26 62.96 43.69 57.19 36.12 59.95 28.55 57.19 24.1 63.08 31.67 71.01 36.12 72.57"/><polyline class="cls-2" points="36.12 56.47 36.12 59.95 36.12 66.08 31.91 70.77 32.39 62.48 28.55 57.19 24.1 63.08"/><polyline class="cls-2" points="24.34 62.96 32.51 62.48 36.12 59.95 39.85 62.48 48.26 62.96"/><polyline class="cls-2" points="36.12 66.08 40.45 70.77 39.85 62.48 43.69 57.19 43.57 54.54 42.97 50.82 40.45 53.22 43.57 54.78"/><line class="cls-2" x1="36.12" y1="66.2" x2="36.12" y2="72.45"/><polyline class="cls-2" points="28.55 57.19 28.67 54.54 29.39 50.82 31.79 53.22 28.67 54.78"/><polyline class="cls-2" points="36.12 50.1 36.12 48.05 33.84 47.69 32.15 49.98 31.91 53.1 32.99 55.26 36.12 54.18 39.24 55.26 40.33 53.1 40.21 49.98 38.64 47.81 36.12 48.05 36.12 54.18"/><polyline class="cls-2" points="39.24 55.26 37.8 56.35 34.56 56.35 32.99 55.26"/><polyline class="cls-2" points="29.39 51.06 29.15 46.49 28.07 42.52 25.06 35.31 25.3 40.84 28.19 42.88 29.63 38.92 31.31 41.44 28.19 42.88"/><polyline class="cls-2" points="47.18 40.84 50.42 40.36 53.55 35.91 53.55 34.11 47.3 35.31 47.3 35.43 53.43 35.91"/><polyline class="cls-2" points="25.3 40.84 21.82 40.36 18.69 36.03 18.69 34.11 24.94 35.19 24.94 35.31 18.81 35.91"/><polyline class="cls-2" points="31.31 41.44 33.84 43.85 33.84 47.69 33.72 47.85 32.63 45.29 30.83 44.69 29.99 43.24 28.43 43 31.91 43.37 32.63 45.29"/><polyline class="cls-2" points="44.13 42.78 42.73 38.92 40.93 41.44 44.05 43 47.18 40.84 47.18 35.31 44.29 42.16 43.21 46.37 43.01 51.06"/><polyline class="cls-2" points="39.73 45.29 40.33 43.24 43.93 43.13 42.13 43.24 41.53 44.69 39.73 45.29 38.51 47.83 38.4 47.84 38.4 43.73 40.93 41.44"/><polyline class="cls-2" points="36.12 38.32 40.69 37.6 42.59 39.11"/><polyline class="cls-2" points="33.84 43.85 36 40.64 33.72 37.96"/><polyline class="cls-2" points="38.4 43.85 36.24 40.63 38.63 37.96"/><polygon class="cls-3" points="36.96 52.74 35.28 52.74 34.44 51.18 35.16 50.22 37.08 50.22 37.8 51.18 36.96 52.74"/><polyline class="cls-2" points="31.67 37.6 29.71 39.05 31.67 37.6 36.12 38.32 36.12 48.05"/><path class="cls-4" d="M375.61,383.83l.37.8a.18.18,0,0,0,.25.07.19.19,0,0,0,.07-.25l-.38-.8a.17.17,0,0,0-.24-.07.19.19,0,0,0-.07.25Z" transform="translate(-348.6 -340.72)"/><path class="cls-4" d="M376.12,383.55a4.69,4.69,0,0,1,.05,1.24.19.19,0,0,0,.18.18.17.17,0,0,0,.18-.18,5.4,5.4,0,0,0-.06-1.33.18.18,0,0,0-.35.09Z" transform="translate(-348.6 -340.72)"/><path class="cls-4" d="M376.22,384.54a1.74,1.74,0,0,1-.45-.53.39.39,0,0,1-.06-.29.18.18,0,0,1,.05-.08s.05,0,0,0,0,0,0,0h0l-.1-.27a3.07,3.07,0,0,0-.27.46.75.75,0,0,0,0,.55,1.53,1.53,0,0,0,.8.7.17.17,0,0,0,.24-.06.18.18,0,0,0-.06-.25,1.22,1.22,0,0,1-.64-.52.38.38,0,0,1,0-.33,2.74,2.74,0,0,1,.23-.36.19.19,0,0,0-.11-.27.46.46,0,0,0-.46.2.56.56,0,0,0-.07.5,1.74,1.74,0,0,0,.59.82.19.19,0,0,0,.26,0,.18.18,0,0,0,0-.25Z" transform="translate(-348.6 -340.72)"/><path class="cls-4" d="M376.8,383a2.85,2.85,0,0,1,.77,0V383l-.42,0H377s-.09,0-.1,0l0,.05.52,0,0-.08a.34.34,0,0,0-.06.06,0,0,0,0,0,0,.07.34.34,0,0,0,.2,0,0,0,0,0,0,0-.08.68.68,0,0,0-.28,0c-.06,0-.06.09,0,.09a1.55,1.55,0,0,0,.37,0,.32.32,0,0,0,.15-.06.06.06,0,0,0,0-.1c-.05,0-.07.07,0,.09h0l0,0s0,0,0,0h0l-.06,0-.11,0h-.23v.09a.54.54,0,0,1,.25,0v-.08a.33.33,0,0,1-.14,0l0,.07,0,0a.05.05,0,0,0,0-.09l-.52,0a.06.06,0,0,0-.05.06c0,.13.22.09.31.08l.51,0a0,0,0,0,0,0-.09,3,3,0,0,0-.79,0,0,0,0,0,0,0,.09Z" transform="translate(-348.6 -340.72)"/><path class="cls-4" d="M377,383.77a0,0,0,1,0,0-.09c-.05,0-.05.09,0,.09Z" transform="translate(-348.6 -340.72)"/><path class="cls-4" d="M377.07,383.79a1.39,1.39,0,0,0-.09-.45,1.08,1.08,0,0,1-.13-.42l-.05,0,.27.11a.74.74,0,0,0,.29,0l0-.07a0,0,0,0,1,0,0,0,0,0,0,0,0,.09.11.11,0,0,0,.1-.06s0-.08,0-.07a.67.67,0,0,1-.28,0l-.26-.11a.06.06,0,0,0-.06.05,1,1,0,0,0,.12.41,1.46,1.46,0,0,1,.1.46,0,0,0,1,0,.09,0Z" transform="translate(-348.6 -340.72)"/><path class="cls-4" d="M380.75,383.09l-2.47,0,0,.08a.88.88,0,0,1,.43-.06h1.34a0,0,0,0,0,0-.09h-1a1.83,1.83,0,0,0-.84.06,0,0,0,0,0,0,.09l2.47,0a0,0,0,0,0,0-.09Z" transform="translate(-348.6 -340.72)"/><path class="cls-4" d="M376.2,385a10.36,10.36,0,0,0,.06,1.25.19.19,0,0,0,.18.18.18.18,0,0,0,.18-.18c0-.41-.06-.83-.06-1.25a.19.19,0,0,0-.18-.18.19.19,0,0,0-.18.18Z" transform="translate(-348.6 -340.72)"/><path class="cls-4" d="M376.18,386.25a2.17,2.17,0,0,0,.45,1,.18.18,0,0,0,.26-.26h0l0,0,0-.05-.07-.11a1.51,1.51,0,0,1-.11-.22s0,0,0,0v0a.14.14,0,0,1,0-.06.56.56,0,0,1,0-.12,2.44,2.44,0,0,1-.06-.26.17.17,0,0,0-.22-.12.18.18,0,0,0-.12.22Z" transform="translate(-348.6 -340.72)"/><path class="cls-4" d="M376.37,386.45l.06.21a.09.09,0,0,0,0,.06l0,0,.06,0h.08a.18.18,0,0,0,.1-.09.13.13,0,0,0,0-.13l-.06-.22s0,0,0-.06,0,0-.05-.05l-.07,0h-.07a.18.18,0,0,0-.11.08l0,0a.17.17,0,0,0,0,.1Z" transform="translate(-348.6 -340.72)"/><path class="cls-4" d="M376.64,387.39a4.72,4.72,0,0,0,.5.59l.27.25.12.12.06.07s0,0,0,0l0,0a.18.18,0,1,0,.31-.18,2.84,2.84,0,0,0-.51-.53l-.25-.27-.12-.15-.1-.13a.19.19,0,0,0-.25-.07.19.19,0,0,0-.06.25Z" transform="translate(-348.6 -340.72)"/><path class="cls-4" d="M377.83,388.19a1.2,1.2,0,0,0-.47-.29.18.18,0,0,0-.14,0,.15.15,0,0,0-.08.11.15.15,0,0,0,0,.13.22.22,0,0,0,.1.09l.07,0,0,0a.83.83,0,0,1,.22.14l0,0,.1.08a.16.16,0,0,0,.12.06.16.16,0,0,0,.13-.06.15.15,0,0,0,.05-.12.15.15,0,0,0-.05-.13Z" transform="translate(-348.6 -340.72)"/><path class="cls-4" d="M377.84,388.53a.7.7,0,0,0,.37.26,3,3,0,0,0,.4.11.2.2,0,0,0,.23-.12.19.19,0,0,0-.13-.23l-.37-.1h0l-.05,0h0l0,0,0,0h0s0,0,0,0,0,0,0,0v0a.18.18,0,0,0-.24-.06.18.18,0,0,0-.07.25Z" transform="translate(-348.6 -340.72)"/><path class="cls-4" d="M378.58,388.43l-.55-.26a.18.18,0,1,0-.18.31l.55.26a.22.22,0,0,0,.14,0,.21.21,0,0,0,.11-.08.17.17,0,0,0,0-.14.18.18,0,0,0-.08-.11Z" transform="translate(-348.6 -340.72)"/><path class="cls-4" d="M378.74,388.9l1.87,0a2.69,2.69,0,0,0,1.55-.38c.19-.13,0-.45-.18-.32a2.61,2.61,0,0,1-1.5.35l-1.74,0a.18.18,0,0,0,0,.36Z" transform="translate(-348.6 -340.72)"/><path class="cls-4" d="M382.61,388a1.1,1.1,0,0,0,.65-.55,2.73,2.73,0,0,0,.45-.84.18.18,0,0,0-.35-.1,2.38,2.38,0,0,1-.38.72,3.17,3.17,0,0,1-.21.27l-.07.07h0l0,0,0,0s0,0,0,0l-.09,0a.18.18,0,0,0-.13.22.2.2,0,0,0,.22.13Z" transform="translate(-348.6 -340.72)"/><path class="cls-4" d="M383.78,386.38l.07-1.68c0-.23-.35-.23-.36,0l-.07,1.68c0,.23.35.23.36,0Z" transform="translate(-348.6 -340.72)"/><path class="cls-4" d="M381.27,383.33c.11,0,.22,0,.34,0a.86.86,0,0,1,.32,0,4.29,4.29,0,0,1,.58.26,3.32,3.32,0,0,1,.94.81.18.18,0,0,0,.26-.26,3.88,3.88,0,0,0-1-.88A4.46,4.46,0,0,0,382,383a1.22,1.22,0,0,0-.38-.07c-.13,0-.26.05-.38.05a.18.18,0,1,0,0,.36Z" transform="translate(-348.6 -340.72)"/><path class="cls-4" d="M383.28,383.76l-.26-.19a.35.35,0,0,0-.15-.07h-.13l0,0h0l0,0h0l0,0h0a.14.14,0,0,0-.1-.08.17.17,0,0,0-.14,0,.2.2,0,0,0-.09.11.19.19,0,0,0,0,.13.28.28,0,0,0,.18.12l.14,0h0l0,0a.91.91,0,0,1,.16.11l.17.12a.16.16,0,0,0,.14,0,.2.2,0,0,0,.1-.08.15.15,0,0,0,0-.14.18.18,0,0,0-.08-.11Z" transform="translate(-348.6 -340.72)"/><path class="cls-4" d="M383.18,383.86a1.17,1.17,0,0,0,.3.14l.07,0h0s0,0,0,0l-.06-.1h0v.12a1.26,1.26,0,0,0,.05.33s0,.05,0,.07,0,0,0,0v.07h0s0,.05,0,0v0l.06-.06h0l.09,0h0l.09,0a.07.07,0,0,1,0,.05v0s0,0,0-.05,0-.06,0,0,0,0,0,0a.18.18,0,0,0-.36,0,1.09,1.09,0,0,0,.05.26.3.3,0,0,0,.12.15.21.21,0,0,0,.24,0c.14-.14.09-.37,0-.54a.43.43,0,0,0,0-.11s0,0,0,0V384a.38.38,0,0,0-.07-.29c-.07-.07-.17-.07-.26-.11s-.05,0,0,0l-.06,0-.11-.06a.17.17,0,0,0-.24.06.19.19,0,0,0,.06.25Z" transform="translate(-348.6 -340.72)"/><path class="cls-4" d="M384,384.93a4.27,4.27,0,0,0,.07-1.13.19.19,0,0,0-.18-.18c-.09,0-.19.08-.18.18a4.48,4.48,0,0,1,0,1,.18.18,0,1,0,.34.09Z" transform="translate(-348.6 -340.72)"/><path class="cls-4" d="M384,384.06h.32c.08,0,.14,0,.05-.05s-.05,0-.07.08a1,1,0,0,1-.27.52l.3.08a.77.77,0,0,1,0-.56c.12-.17.45-.14.63-.15a6.06,6.06,0,0,1,.75,0c.19,0,.46.13.63,0a.26.26,0,0,0,0-.39.35.35,0,0,0-.44,0c-.32.26,0,.67.35.6l-.21-.26c-.11.23-.39.14-.57.07a1.52,1.52,0,0,0-.69-.16.18.18,0,0,0,0,.36c.29,0,.59,0,.88,0l0-.35a6.93,6.93,0,0,1-.87.22.19.19,0,0,0-.11.27,1.16,1.16,0,0,0,.4.33c.13.07.34.13.39.29l.33-.14c-.07-.12-.13-.26-.21-.37s-.08,0,0,0h.07c-.07-.07-.08.1-.08.13a1.56,1.56,0,0,0,.07.8c.06.15.31.19.35,0a6.67,6.67,0,0,0,.13-1h-.36c0,.37,0,.74,0,1.11a7.39,7.39,0,0,0,0,.94,2.12,2.12,0,0,0,.88,1.43.18.18,0,0,0,.29-.22,9.14,9.14,0,0,0-.64-1.09c-.13-.19-.44,0-.31.18a11.94,11.94,0,0,1,.64,1.09l.28-.22a3,3,0,0,1-.57-.56,1.6,1.6,0,0,1-.23-.83c0-.61,0-1.22,0-1.83a.18.18,0,0,0-.36,0,6.94,6.94,0,0,1-.12.9H386a1.33,1.33,0,0,1-.09-.44c0-.14.05-.26.06-.39a.3.3,0,0,0-.3-.36.38.38,0,0,0-.44.25c0,.23.18.49.29.68s.4.06.33-.14a.76.76,0,0,0-.35-.4c-.16-.09-.37-.15-.47-.31l-.11.27a6.38,6.38,0,0,0,.86-.22.18.18,0,0,0-.05-.36c-.29,0-.59,0-.88,0v.36c.35,0,.64.24,1,.24a.61.61,0,0,0,.57-.33.18.18,0,0,0-.2-.26l-.09-.1.11-.08a1.1,1.1,0,0,1-.43,0,3.87,3.87,0,0,0-.48,0,3.52,3.52,0,0,0-.86,0c-.52.13-.54.68-.46,1.12a.19.19,0,0,0,.31.08,1.4,1.4,0,0,0,.39-.89c0-.37-.42-.28-.68-.28s-.23.37,0,.36Z" transform="translate(-348.6 -340.72)"/><path class="cls-4" d="M392.73,387a.18.18,0,0,0,0-.36.18.18,0,0,0,0,.36Z" transform="translate(-348.6 -340.72)"/><path class="cls-4" d="M387.4,388.49a3.62,3.62,0,0,0,.83.31,4.85,4.85,0,0,0,.85.05l1.87,0a.18.18,0,0,0,0-.36l-1.73,0a5.71,5.71,0,0,1-.83,0,2.88,2.88,0,0,1-.81-.28c-.21-.1-.39.21-.18.31Z" transform="translate(-348.6 -340.72)"/><path class="cls-4" d="M388.4,388.94a.18.18,0,0,0,0-.36.18.18,0,0,0,0,.36Z" transform="translate(-348.6 -340.72)"/><path class="cls-4" d="M379,384.35l.69.07.34,0h.1s0,.07,0,.08a3.68,3.68,0,0,0,.54,1.13l.24-.24a2.66,2.66,0,0,0-.53-.21l-.27-.07a2.14,2.14,0,0,1-.27-.06c-.14-.05-.18-.21-.23-.33a1.16,1.16,0,0,0-.32-.44l0,.28a.47.47,0,0,1,.44.15c.16.15.28.34.43.49a.18.18,0,0,0,.22,0,.19.19,0,0,0,.08-.2,2.42,2.42,0,0,0-.13-.53c0-.1-.08-.19-.19-.22a.27.27,0,0,0-.24.08.58.58,0,0,0-.27.36.38.38,0,0,0,.18.41.18.18,0,0,0,.24-.24,1.51,1.51,0,0,0-.32-.43c-.15-.13-.39,0-.28.22a1.22,1.22,0,0,0,.32.39.18.18,0,0,0,.25-.25,1,1,0,0,1-.26-.32l-.29.22a1,1,0,0,1,.27.35l.25-.25h0s0,0,0,0,0,0,0-.06a.49.49,0,0,1,.17-.15l-.09,0h0l-.09,0h0l-.06-.06a.8.8,0,0,1,.09.26c0,.1.05.2.07.3l.3-.17a6.4,6.4,0,0,0-.56-.6.75.75,0,0,0-.75-.1.19.19,0,0,0,0,.29,1,1,0,0,1,.29.41.81.81,0,0,0,.32.41,3.41,3.41,0,0,0,.55.14,2.49,2.49,0,0,1,.54.2c.15.07.35-.09.25-.25s-.24-.39-.34-.59a1.88,1.88,0,0,1-.12-.3,1.78,1.78,0,0,0-.09-.33c-.12-.21-.44-.19-.65-.21L379,384a.18.18,0,1,0,0,.36Z" transform="translate(-348.6 -340.72)"/><path class="cls-4" d="M379.91,385.35a.18.18,0,1,0,0-.36.18.18,0,0,0,0,.36Z" transform="translate(-348.6 -340.72)"/><path class="cls-4" d="M384.05,385a.18.18,0,0,0,0-.36.18.18,0,0,0,0,.36Z" transform="translate(-348.6 -340.72)"/><path class="cls-4" d="M388.86,385.71a3.88,3.88,0,0,0,.34-1.16.74.74,0,0,1,0-.14s0,0,0,0h.15l.2,0,.75-.07-.13-.31a2.08,2.08,0,0,0-.37,1.05v0s0,0,0,0,0,0,0,0l-.14,0-.27.08a2.32,2.32,0,0,0-.57.22l.25.25a3.17,3.17,0,0,0,.27-.84,1.25,1.25,0,0,0,0-.19s0,0,0,0l.09,0a3.11,3.11,0,0,1,.44-.06l-.18-.18-.07.49s0,.1,0,.11,0,0,.05-.05h-.22s0,0,0,0l.08,0s0,.1,0,0v-.08a.45.45,0,0,1,0-.11l0,0h0s0,0-.05,0-.06-.09,0-.15c-.21.1,0,.42.18.31a.26.26,0,0,0,.09-.36.29.29,0,0,0-.35-.11.56.56,0,0,0-.27.67.26.26,0,0,0,.15.17.55.55,0,0,0,.18,0,.62.62,0,0,0,.4-.11c.09-.1.08-.28.1-.41l.05-.41a.17.17,0,0,0-.18-.18,3,3,0,0,0-.52.07.36.36,0,0,0-.23.09.3.3,0,0,0-.12.21c0,.15-.05.31-.09.46a2.54,2.54,0,0,1-.17.46c-.08.15.08.35.24.24a2.06,2.06,0,0,1,.54-.2l.29-.08a.44.44,0,0,0,.27-.17.56.56,0,0,0,.07-.26,2.56,2.56,0,0,1,0-.27,1.41,1.41,0,0,1,.2-.49.17.17,0,0,0,0-.19.16.16,0,0,0-.16-.11l-.82.07a2.78,2.78,0,0,0-.39,0,.42.42,0,0,0-.25.27c-.16.4-.11.87-.35,1.23a.19.19,0,0,0,.06.25.18.18,0,0,0,.25-.07Z" transform="translate(-348.6 -340.72)"/><path class="cls-4" d="M391.39,388.27a.77.77,0,0,0-.37.34l.25-.06,0,0,.09.16c0,.05.11,0,.15-.06l.22-.15a2.69,2.69,0,0,0,.41-.33,3.51,3.51,0,0,0,.65-.84l-.34-.09c-.06.46-.53.73-.93.89a5.48,5.48,0,0,1-1.55.37,5.65,5.65,0,0,1-1.59-.09,3.42,3.42,0,0,1-1.38-.64c-.18-.14-.36.17-.18.31a4.7,4.7,0,0,0,3.5.74c.91-.13,2.35-.48,2.49-1.58,0-.19-.25-.24-.33-.09a3.26,3.26,0,0,1-1,1.09c-.18.12-.78.41-.35.65a.19.19,0,0,0,.25-.07.45.45,0,0,1,.24-.21c.21-.09,0-.4-.18-.31Z" transform="translate(-348.6 -340.72)"/><path class="cls-4" d="M384.6,384.48a.18.18,0,0,0,0-.36.18.18,0,0,0,0,.36Z" transform="translate(-348.6 -340.72)"/><path class="cls-4" d="M376.37,383l-.15.1a.12.12,0,0,0-.05.05.09.09,0,0,0,0,.06v.07a.19.19,0,0,0,0,.07.23.23,0,0,0,.11.08h.05l.09,0,.15-.1s0,0,.06-.05l0-.06s0-.05,0-.07a.14.14,0,0,0,0-.07.18.18,0,0,0-.11-.08h-.05l-.09,0Z" transform="translate(-348.6 -340.72)"/><path class="cls-4" d="M376,383.65a.18.18,0,0,0,0-.36.18.18,0,0,0,0,.36Z" transform="translate(-348.6 -340.72)"/><path class="cls-4" d="M375.89,383.54s0,0,0,0a0,0,0,0,1,0,0v.08s0,.09,0,.14v.29h.36v-.68a.2.2,0,0,0-.18-.18.18.18,0,0,0-.18.18v.68a.18.18,0,0,0,.36,0,3.39,3.39,0,0,0,0-.64s-.05-.09-.08-.11a.17.17,0,0,0-.14,0,.18.18,0,0,0-.11.08.32.32,0,0,0,0,.14Z" transform="translate(-348.6 -340.72)"/><path class="cls-4" d="M376.75,383.21a.18.18,0,0,0,0-.36.18.18,0,1,0,0,.36Z" transform="translate(-348.6 -340.72)"/><path class="cls-4" d="M376.81,383.21a8.45,8.45,0,0,1,1.51,0,.19.19,0,0,0,.18-.18c0-.08-.09-.19-.18-.18a8.64,8.64,0,0,0-1.61.05.18.18,0,0,0-.12.22.18.18,0,0,0,.22.13Z" transform="translate(-348.6 -340.72)"/><path class="cls-4" d="M381,383.26a.18.18,0,0,0,0-.36.18.18,0,0,0,0,.36Z" transform="translate(-348.6 -340.72)"/><path class="cls-4" d="M377.8,388.32a.18.18,0,0,0,0-.36.18.18,0,0,0,0,.36Z" transform="translate(-348.6 -340.72)"/><path class="cls-4" d="M377.92,388.73a.18.18,0,0,0,0-.36.18.18,0,0,0,0,.36Z" transform="translate(-348.6 -340.72)"/><path class="cls-4" d="M382.45,387.89a1.15,1.15,0,0,0-.17.06l-.12.08a.1.1,0,0,0-.05,0,.16.16,0,0,0,0,.07.16.16,0,0,0,0,.07.14.14,0,0,0,0,.06.19.19,0,0,0,.11.09h.05a.15.15,0,0,0,.09,0,.51.51,0,0,1,.16-.09l-.05,0,.1,0a.21.21,0,0,0,.11-.08.14.14,0,0,0,0-.07V388a.31.31,0,0,0-.09-.11.17.17,0,0,0-.14,0Z" transform="translate(-348.6 -340.72)"/><path class="cls-4" d="M386,384.21a6.62,6.62,0,0,1,1.58-.83.18.18,0,0,0,.13-.19c0-.08-.09-.17-.18-.16a2.19,2.19,0,0,0-1,.52l-.23.16c-.09.06-.2.12-.23.23a.23.23,0,0,0,.17.27.92.92,0,0,0,.33,0,.18.18,0,0,0-.1-.35l-.09,0h0l.07.06v0l0,.14v0l0,.08a.45.45,0,0,1,.13-.1l.15-.11.31-.22a1.24,1.24,0,0,1,.56-.28l-.05-.35a7,7,0,0,0-1.73.91.18.18,0,0,0,0,.26.18.18,0,0,0,.25,0Z" transform="translate(-348.6 -340.72)"/><path class="cls-4" d="M386.71,383.53a1.07,1.07,0,0,1-.16.14l0,0a.94.94,0,0,1-.18.12.21.21,0,0,0-.08.11.17.17,0,0,0,0,.14.21.21,0,0,0,.11.08.22.22,0,0,0,.14,0,1.57,1.57,0,0,0,.38-.3.18.18,0,0,0,0-.12.19.19,0,0,0,0-.13.19.19,0,0,0-.26,0Z" transform="translate(-348.6 -340.72)"/><path class="cls-4" d="M391.82,388.17a2.8,2.8,0,0,0-.53.37.18.18,0,0,0-.05.12.19.19,0,0,0,.05.13.17.17,0,0,0,.13,0,.21.21,0,0,0,.13,0l.12-.1,0,0a2.92,2.92,0,0,1,.37-.24.18.18,0,0,0,.07-.25.19.19,0,0,0-.25-.06Z" transform="translate(-348.6 -340.72)"/><path class="cls-4" d="M387.68,383.29c1.77,0,3.54-.07,5.32-.09.23,0,.23-.37,0-.36-1.78,0-3.55.05-5.32.09a.18.18,0,0,0,0,.36Z" transform="translate(-348.6 -340.72)"/><path class="cls-4" d="M387,383.85a.18.18,0,0,0,0-.36.18.18,0,0,0,0,.36Z" transform="translate(-348.6 -340.72)"/><path class="cls-4" d="M392.8,387.51a5,5,0,0,0,.39-2.51l-.35.05a4.22,4.22,0,0,1,.05,1.23.55.55,0,0,1-.24.4.73.73,0,0,0-.23.32.19.19,0,0,0,.23.22c.77-.17.6-1.15.58-1.73a17,17,0,0,0,0-2.37l-.13.22c.18,0,.53-.07.68.07s.09.49.06.63-.27.25-.41.36a1.6,1.6,0,0,0-.39.43l.34.09,0-.73c0-.1,0-.21,0-.32a1.08,1.08,0,0,1,0-.36l-.11.08a.53.53,0,0,1,.35,0l-.09-.11c0,.07.06.61-.07.56l.14.17a3.84,3.84,0,0,1,0-.59c0-.23-.33-.23-.36,0a5.68,5.68,0,0,0,0,.59.19.19,0,0,0,.14.17c.31.13.53-.18.54-.46s0-.65-.3-.71a.72.72,0,0,0-.48,0c-.12.08-.11.24-.12.37l-.06,1.29a.18.18,0,0,0,.33.09,1.15,1.15,0,0,1,.38-.38,1.94,1.94,0,0,0,.29-.21.89.89,0,0,0,.18-.73c0-.28,0-.51-.32-.63A1.64,1.64,0,0,0,393,383a.18.18,0,0,0-.12.22,11.55,11.55,0,0,1,0,2c0,.33,0,.66,0,1s0,.64-.35.72l.22.22c.05-.14.21-.22.31-.33a.85.85,0,0,0,.17-.49,4.49,4.49,0,0,0-.06-1.32.18.18,0,0,0-.36,0,4.72,4.72,0,0,1-.34,2.33c-.11.21.2.39.31.18Z" transform="translate(-348.6 -340.72)"/></g><g id="Capa_7" data-name="Capa 7"><path class="cls-5" d="M389,411.31l-4-5.48h0l-4,5.48h-1.2l4.54-6.2-4.35-6h1.2l3.8,5.2h0l3.88-5.2h1.2L385.64,405l4.62,6.27Z" transform="translate(-348.6 -340.72)"/></g><g id="Capa_5" data-name="Capa 5"><path class="cls-2" d="M383.88,385.16l.84-.6.84.6.24,1.93a4.63,4.63,0,0,0,2.53,1.92h2.88a4.17,4.17,0,0,0,2.17-2.65V385l.84-.72v-1.08l-1.57-.48-4.92.12-1.93.72h-2.16l-1.44-.6-5.41-.24-1.44.6v1.08l.72.6v1.2a3.86,3.86,0,0,0,2.28,2.77h2.77a4.9,4.9,0,0,0,2.64-2Z" transform="translate(-348.6 -340.72)"/><path class="cls-2" d="M386.28,384.44v1.8a3.05,3.05,0,0,0,2.05,2.17h2.52s1.68-.84,1.8-2.17l.14-2.94-5.06.06Z" transform="translate(-348.6 -340.72)"/><path class="cls-2" d="M383.33,384.43v1.8a3.07,3.07,0,0,1-2.11,2.16h-2.61s-1.74-.84-1.87-2.16l-.13-2.94,5.23.06Z" transform="translate(-348.6 -340.72)"/></g><g id="Capa_2" data-name="Capa 2"><polygon class="cls-6" points="42.98 34.88 40.67 37.52 42.74 38.97 46.89 35.72 57.99 29.23 61.53 24.9 61.53 18.41 62.14 17.93 61.78 13.85 60.92 15.77 60.31 10.48 57.02 6.51 58.73 10.84 59.09 16.73 53.23 13.01 58.6 20.46 56.65 26.23 55.43 27.19 55.55 24.42 53.84 21.06 53.11 17.33 52.14 21.18 53.48 24.78 52.5 29.35 45.79 33.2 45.3 30.79 42.13 27.43 43.35 31.64 42.98 34.88"/><polygon class="cls-6" points="29.27 34.83 31.55 37.48 29.51 38.92 25.42 35.67 14.48 29.18 11 24.86 11 18.36 10.4 17.88 10.76 13.8 11.6 15.72 12.2 10.43 15.45 6.46 13.76 10.79 13.4 16.68 19.17 12.96 13.88 20.41 15.81 26.18 17.01 27.14 16.89 24.37 18.57 21.01 19.29 17.28 20.25 21.13 18.93 24.73 19.89 29.3 26.5 33.15 26.98 30.75 30.11 27.38 28.91 31.59 29.27 34.83"/></g></svg>