<svg width="72" height="72" viewBox="0 0 72 72" fill="none" xmlns="http://www.w3.org/2000/svg">
<path d="M36 71C55.33 71 71 55.33 71 36C71 16.67 55.33 1 36 1C16.67 1 1 16.67 1 36C1 55.33 16.67 71 36 71Z" fill="#191919" stroke="#191919" stroke-width="0.8" stroke-miterlimit="10"/>
<path d="M51.3645 60.5579L56 66.0277L51.8525 69L43.5371 62.2917L21.295 48.8959L14.2199 39.9791V26.5625L13 25.5718L13.7319 17.1503L15.4397 21.1134L16.6596 10.1944L23.2671 2L19.8312 10.9375L19.0993 23.0949L30.8303 15.4165L20.0752 30.7939L23.9991 42.7036L26.4388 44.6852L26.1948 38.9677L29.6104 32.0323L31.0742 24.3333L33.026 32.28L30.3423 39.7107L32.2941 49.1436L45.7329 57.0903L46.7087 52.1365L53.0723 45.1805L50.6326 53.8703L51.3645 60.5579Z" fill="white" stroke="white" stroke-width="0.36" stroke-miterlimit="10"/>
</svg>
